<svg width="24" height="24" viewBox="0 0 24 24" fill="none" xmlns="http://www.w3.org/2000/svg">
<path d="M20.1818 12C20.1818 7.48131 16.5187 3.81818 12 3.81818C7.48131 3.81818 3.81818 7.48131 3.81818 12C3.81818 16.5187 7.48131 20.1818 12 20.1818C16.5187 20.1818 20.1818 16.5187 20.1818 12ZM22 12C22 17.5228 17.5228 22 12 22C6.47715 22 2 17.5228 2 12C2 6.47715 6.47715 2 12 2C17.5228 2 22 6.47715 22 12Z" fill="#B1B8BE"/>
<path d="M11.0898 6.54532C11.0898 6.04324 11.4969 5.63623 11.9989 5.63623C12.501 5.63623 12.908 6.04324 12.908 6.54532V11.4379L16.0419 13.0048C16.491 13.2294 16.673 13.7756 16.4485 14.2247C16.224 14.6737 15.6778 14.8558 15.2287 14.6313L11.5923 12.8131C11.2843 12.6591 11.0898 12.3442 11.0898 11.9999V6.54532Z" fill="#B1B8BE"/>
</svg>
