<svg width="20" height="20" viewBox="0 0 20 20" fill="none" xmlns="http://www.w3.org/2000/svg">
<path d="M9.91797 10.7254C10.1517 10.7254 10.3478 10.6462 10.5062 10.4878C10.664 10.3299 10.743 10.1341 10.743 9.90039V6.57977C10.743 6.34602 10.664 6.15352 10.5062 6.00227C10.3478 5.85102 10.1517 5.77539 9.91797 5.77539C9.68422 5.77539 9.48842 5.85432 9.33057 6.01217C9.17217 6.17057 9.09297 6.36664 9.09297 6.60039V9.92101C9.09297 10.1548 9.17217 10.3473 9.33057 10.4985C9.48842 10.6498 9.68422 10.7254 9.91797 10.7254ZM9.91797 14.0254C10.1517 14.0254 10.3478 13.9462 10.5062 13.7878C10.664 13.6299 10.743 13.4341 10.743 13.2004C10.743 12.9666 10.664 12.7706 10.5062 12.6122C10.3478 12.4543 10.1517 12.3754 9.91797 12.3754C9.68422 12.3754 9.48842 12.4543 9.33057 12.6122C9.17217 12.7706 9.09297 12.9666 9.09297 13.2004C9.09297 13.4341 9.17217 13.6299 9.33057 13.7878C9.48842 13.9462 9.68422 14.0254 9.91797 14.0254ZM9.91797 18.1504C8.77672 18.1504 7.70422 17.9337 6.70047 17.5003C5.69672 17.0674 4.82359 16.4798 4.08109 15.7373C3.33859 14.9948 2.75092 14.1216 2.31807 13.1179C1.88467 12.1141 1.66797 11.0416 1.66797 9.90039C1.66797 8.75914 1.88467 7.68664 2.31807 6.68289C2.75092 5.67914 3.33859 4.80602 4.08109 4.06352C4.82359 3.32102 5.69672 2.73307 6.70047 2.29967C7.70422 1.86682 8.77672 1.65039 9.91797 1.65039C11.0592 1.65039 12.1317 1.86682 13.1355 2.29967C14.1392 2.73307 15.0123 3.32102 15.7548 4.06352C16.4973 4.80602 17.085 5.67914 17.5179 6.68289C17.9513 7.68664 18.168 8.75914 18.168 9.90039C18.168 11.0416 17.9513 12.1141 17.5179 13.1179C17.085 14.1216 16.4973 14.9948 15.7548 15.7373C15.0123 16.4798 14.1392 17.0674 13.1355 17.5003C12.1317 17.9337 11.0592 18.1504 9.91797 18.1504ZM9.91797 16.5004C11.7467 16.5004 13.304 15.8577 14.5899 14.5724C15.8753 13.2865 16.518 11.7291 16.518 9.90039C16.518 8.07164 15.8753 6.51432 14.5899 5.22842C13.304 3.94307 11.7467 3.30039 9.91797 3.30039C8.08922 3.30039 6.53217 3.94307 5.24682 5.22842C3.96092 6.51432 3.31797 8.07164 3.31797 9.90039C3.31797 11.7291 3.96092 13.2865 5.24682 14.5724C6.53217 15.8577 8.08922 16.5004 9.91797 16.5004Z" fill="#1F2124"/>
</svg>
