<svg width="20" height="20" viewBox="0 0 20 20" fill="none" xmlns="http://www.w3.org/2000/svg">
<g clip-path="url(#clip0_40000335_12008)">
<path d="M16.668 1.66699H3.33464C2.5013 1.66699 1.66797 2.41699 1.66797 3.33366V5.84199C1.66797 6.44199 2.0263 6.95866 2.5013 7.25033V16.667C2.5013 17.5837 3.41797 18.3337 4.16797 18.3337H15.8346C16.5846 18.3337 17.5013 17.5837 17.5013 16.667V7.25033C17.9763 6.95866 18.3346 6.44199 18.3346 5.84199V3.33366C18.3346 2.41699 17.5013 1.66699 16.668 1.66699ZM15.8346 16.667H4.16797V7.50033H15.8346V16.667ZM16.668 5.83366H3.33464V3.33366H16.668V5.83366Z" fill="#1F2124"/>
<path d="M12.5 10H7.5V11.6667H12.5V10Z" fill="#1F2124"/>
</g>
<defs>
<clipPath id="clip0_40000335_12008">
<rect width="20" height="20" fill="white"/>
</clipPath>
</defs>
</svg>
