<svg width="60" height="60" viewBox="0 0 60 60" fill="none" xmlns="http://www.w3.org/2000/svg">
<path d="M58.2422 0C59.2125 0 60 0.7875 60 1.75781V24.2578C60 25.2281 59.2125 26.0156 58.2422 26.0156H36.6025L31.3906 32.585C31.0578 33.0337 30.5297 33.2578 30 33.2578C29.4703 33.2578 28.9422 33.0337 28.6094 32.585L23.3975 26.0156H1.75781C0.7875 26.0156 0 25.2281 0 24.2578V1.75781C6.04685e-08 0.7875 0.7875 6.04695e-08 1.75781 0H58.2422Z" fill="#C8D5FF"/>
<path d="M29.9996 48.0845L35.289 55.5929L29.9996 60.0001H20L18.5996 59.4247L20 58.0841C20 52.561 24.4766 48.0845 29.9996 48.0845Z" fill="#3754B5"/>
<path d="M41.1258 59.0579L39.9996 60.0001H30V48.0845C35.523 48.0845 39.9996 52.561 39.9996 58.0841L41.1258 59.0579Z" fill="#3754B5"/>
<path d="M9.99996 48.084C15.5228 48.084 19.9999 52.5611 19.9999 58.0839V60.0001H1.75781C0.787031 60.0001 0 59.213 0 58.2423V58.0841C0 52.5611 4.47715 48.084 9.99996 48.084Z" fill="#4D77FF"/>
<path d="M10.0003 48.0839C13.2549 48.0839 15.8932 45.4431 15.8932 42.1855C15.8932 38.9279 13.2549 36.2871 10.0003 36.2871C6.74576 36.2871 4.10742 38.9279 4.10742 42.1855C4.10742 45.4431 6.74576 48.0839 10.0003 48.0839Z" fill="#E5EBFF"/>
<path d="M30.0008 36.2871L32.4001 41.9433L30.0008 48.0844C26.7465 48.0844 24.1074 45.443 24.1074 42.1852C24.1074 38.9273 26.7465 36.2871 30.0008 36.2871Z" fill="#E5EBFF"/>
<path d="M50.0001 48.084C55.5229 48.084 60 52.5611 60 58.0839V58.2423C60 59.213 59.213 60.0001 58.2422 60.0001H40V58.0841C40 52.5611 44.4771 48.084 50.0001 48.084Z" fill="#7192FF"/>
<path d="M50.0003 48.0839C53.2549 48.0839 55.8932 45.4431 55.8932 42.1855C55.8932 38.9279 53.2549 36.2871 50.0003 36.2871C46.7458 36.2871 44.1074 38.9279 44.1074 42.1855C44.1074 45.4431 46.7458 48.0839 50.0003 48.0839Z" fill="#E5EBFF"/>
<path d="M17.1094 8.85791V17.1782C17.1094 18.1485 16.3219 18.936 15.3516 18.936H7.03125C6.06094 18.936 5.27344 18.1485 5.27344 17.1782V8.85791C5.27344 7.8876 6.06094 7.1001 7.03125 7.1001H15.3516C16.3219 7.1001 17.1094 7.8876 17.1094 8.85791Z" fill="#3754B5"/>
<path d="M29.9998 6.58008L32.8859 15.2108L29.9998 19.4566H24.0877C23.4466 19.4566 22.8572 19.1074 22.5478 18.5473C22.2396 17.9859 22.2595 17.3016 22.6017 16.7602L28.4998 7.41562C28.5572 7.32422 28.6216 7.23867 28.6955 7.16016L28.7095 7.14492C29.0423 6.78516 29.5099 6.58008 29.9998 6.58008Z" fill="#7192FF"/>
<path d="M48.2812 19.4634C51.8409 19.4634 54.7266 16.5777 54.7266 13.0181C54.7266 9.45842 51.8409 6.57275 48.2812 6.57275C44.7216 6.57275 41.8359 9.45842 41.8359 13.0181C41.8359 16.5777 44.7216 19.4634 48.2812 19.4634Z" fill="#4D77FF"/>
<path d="M35.8934 42.1852C35.8934 45.443 33.2543 48.0844 30 48.0844V36.2871C33.2543 36.2871 35.8934 38.9273 35.8934 42.1852Z" fill="#E5EBFF"/>
<path d="M37.452 18.5473C37.1426 19.1074 36.5531 19.4566 35.9121 19.4566H30V6.58008C30.4898 6.58008 30.9574 6.78516 31.2902 7.14492L31.3043 7.16016C31.3781 7.23867 31.4426 7.32422 31.5 7.41562L37.398 16.7602C37.7402 17.3016 37.7602 17.9859 37.452 18.5473Z" fill="#7192FF"/>
</svg>
